<group>
amp_velcurve_127=1
amp_velcurve_102=1.1310301997026824
amp_velcurve_100=1
amp_velcurve_82=0.9782742912970316
amp_velcurve_80=1
amp_velcurve_62=0.8712057713866025
amp_velcurve_60=1
amp_velcurve_42=0.9320224180999345
amp_velcurve_40=1
amp_velcurve_22=1.1346337981719108
amp_velcurve_20=1
amp_velcurve_2=0
<region>
lovel=101
hivel=127
ampeg_release=1
sample=Db6_v127.aif
offset=0
lokey=84
hikey=84
pitch_keycenter=85

<region>
lovel=81
hivel=100
ampeg_release=1
sample=Db6_v100.aif
offset=0
lokey=84
hikey=84
pitch_keycenter=85

<region>
lovel=61
hivel=80
ampeg_release=1
sample=Db6_v80.aif
offset=0
lokey=84
hikey=84
pitch_keycenter=85

<region>
lovel=41
hivel=60
ampeg_release=1
sample=Db6_v60.aif
offset=0
lokey=84
hikey=84
pitch_keycenter=85

<region>
lovel=21
hivel=40
ampeg_release=1
sample=Db6_v40.aif
offset=0
lokey=84
hikey=84
pitch_keycenter=85

<region>
lovel=1
hivel=20
ampeg_release=1
sample=Db6_v20.aif
offset=0
lokey=84
hikey=84
pitch_keycenter=85
<group>
amp_velcurve_127=1
amp_velcurve_102=1.0358172405512458
amp_velcurve_100=1
amp_velcurve_82=0.9566045224582738
amp_velcurve_80=1
amp_velcurve_62=0.9768979349761338
amp_velcurve_60=1
amp_velcurve_42=0.9209058444132651
amp_velcurve_40=1
amp_velcurve_22=1.1029520415140504
amp_velcurve_20=1
amp_velcurve_2=0
<region>
lovel=101
hivel=127
ampeg_release=1
sample=Bb5_v127.aif
offset=0
lokey=81
hikey=83
pitch_keycenter=82

<region>
lovel=81
hivel=100
ampeg_release=1
sample=Bb5_v100.aif
offset=0
lokey=81
hikey=83
pitch_keycenter=82

<region>
lovel=61
hivel=80
ampeg_release=1
sample=Bb5_v80.aif
offset=0
lokey=81
hikey=83
pitch_keycenter=82

<region>
lovel=41
hivel=60
ampeg_release=1
sample=Bb5_v60.aif
offset=0
lokey=81
hikey=83
pitch_keycenter=82

<region>
lovel=21
hivel=40
ampeg_release=1
sample=Bb5_v40.aif
offset=0
lokey=81
hikey=83
pitch_keycenter=82

<region>
lovel=1
hivel=20
ampeg_release=1
sample=Bb5_v20.aif
offset=0
lokey=81
hikey=83
pitch_keycenter=82
<group>
amp_velcurve_127=1
amp_velcurve_102=1.4370370960940437
amp_velcurve_100=1
amp_velcurve_82=0.9007525687437049
amp_velcurve_80=1
amp_velcurve_62=0.9341665868067625
amp_velcurve_60=1
amp_velcurve_42=0.8469065838737384
amp_velcurve_40=1
amp_velcurve_22=1.1367171429493215
amp_velcurve_20=1
amp_velcurve_2=0
<region>
lovel=101
hivel=127
ampeg_release=1
sample=G5_v127.aif
offset=0
lokey=78
hikey=80
pitch_keycenter=79

<region>
lovel=81
hivel=100
ampeg_release=1
sample=G5_v100.aif
offset=0
lokey=78
hikey=80
pitch_keycenter=79

<region>
lovel=61
hivel=80
ampeg_release=1
sample=G5_v80.aif
offset=0
lokey=78
hikey=80
pitch_keycenter=79

<region>
lovel=41
hivel=60
ampeg_release=1
sample=G5_v60.aif
offset=0
lokey=78
hikey=80
pitch_keycenter=79

<region>
lovel=21
hivel=40
ampeg_release=1
sample=G5_v40.aif
offset=0
lokey=78
hikey=80
pitch_keycenter=79

<region>
lovel=1
hivel=20
ampeg_release=1
sample=G5_v20.aif
offset=0
lokey=78
hikey=80
pitch_keycenter=79
<group>
amp_velcurve_127=1
amp_velcurve_102=0.7485705740247193
amp_velcurve_100=1
amp_velcurve_82=1.346010326295238
amp_velcurve_80=1
amp_velcurve_62=0.870493395055014
amp_velcurve_60=1
amp_velcurve_42=1.031793756539698
amp_velcurve_40=1
amp_velcurve_22=0.872409144894028
amp_velcurve_20=1
amp_velcurve_2=0
<region>
lovel=101
hivel=127
ampeg_release=1
sample=E5_v127.aif
offset=0
lokey=75
hikey=77
pitch_keycenter=76

<region>
lovel=81
hivel=100
ampeg_release=1
sample=E5_v100.aif
offset=0
lokey=75
hikey=77
pitch_keycenter=76

<region>
lovel=61
hivel=80
ampeg_release=1
sample=E5_v80.aif
offset=0
lokey=75
hikey=77
pitch_keycenter=76

<region>
lovel=41
hivel=60
ampeg_release=1
sample=E5_v60.aif
offset=0
lokey=75
hikey=77
pitch_keycenter=76

<region>
lovel=21
hivel=40
ampeg_release=1
sample=E5_v40.aif
offset=0
lokey=75
hikey=77
pitch_keycenter=76

<region>
lovel=1
hivel=20
ampeg_release=1
sample=E5_v20.aif
offset=0
lokey=75
hikey=77
pitch_keycenter=76
<group>
amp_velcurve_127=1
amp_velcurve_102=0.9450649825391683
amp_velcurve_100=1
amp_velcurve_82=0.8583942854644996
amp_velcurve_80=1
amp_velcurve_62=0.9858969272014289
amp_velcurve_60=1
amp_velcurve_42=0.8712335080383707
amp_velcurve_40=1
amp_velcurve_22=1.10193504398664
amp_velcurve_20=1
amp_velcurve_2=0
<region>
lovel=101
hivel=127
ampeg_release=1
sample=Db5_v127.aif
offset=0
lokey=72
hikey=74
pitch_keycenter=73

<region>
lovel=81
hivel=100
ampeg_release=1
sample=Db5_v100.aif
offset=0
lokey=72
hikey=74
pitch_keycenter=73

<region>
lovel=61
hivel=80
ampeg_release=1
sample=Db5_v80.aif
offset=0
lokey=72
hikey=74
pitch_keycenter=73

<region>
lovel=41
hivel=60
ampeg_release=1
sample=Db5_v60.aif
offset=0
lokey=72
hikey=74
pitch_keycenter=73

<region>
lovel=21
hivel=40
ampeg_release=1
sample=Db5_v40.aif
offset=0
lokey=72
hikey=74
pitch_keycenter=73

<region>
lovel=1
hivel=20
ampeg_release=1
sample=Db5_v20.aif
offset=0
lokey=72
hikey=74
pitch_keycenter=73
<group>
amp_velcurve_127=1
amp_velcurve_102=0.96960505037986
amp_velcurve_100=1
amp_velcurve_82=0.8451796546859627
amp_velcurve_80=1
amp_velcurve_62=1.0122814526022867
amp_velcurve_60=1
amp_velcurve_42=0.852985068815476
amp_velcurve_40=1
amp_velcurve_22=0.9629556512483505
amp_velcurve_20=1
amp_velcurve_2=0
<region>
lovel=101
hivel=127
ampeg_release=1
sample=Bb4_v127.aif
offset=0
lokey=69
hikey=71
pitch_keycenter=70

<region>
lovel=81
hivel=100
ampeg_release=1
sample=Bb4_v100.aif
offset=0
lokey=69
hikey=71
pitch_keycenter=70

<region>
lovel=61
hivel=80
ampeg_release=1
sample=Bb4_v80.aif
offset=0
lokey=69
hikey=71
pitch_keycenter=70

<region>
lovel=41
hivel=60
ampeg_release=1
sample=Bb4_v60.aif
offset=0
lokey=69
hikey=71
pitch_keycenter=70

<region>
lovel=21
hivel=40
ampeg_release=1
sample=Bb4_v40.aif
offset=0
lokey=69
hikey=71
pitch_keycenter=70

<region>
lovel=1
hivel=20
ampeg_release=1
sample=Bb4_v20.aif
offset=0
lokey=69
hikey=71
pitch_keycenter=70
<group>
amp_velcurve_127=1
amp_velcurve_102=0.8619900622742552
amp_velcurve_100=1
amp_velcurve_82=0.9951400348381104
amp_velcurve_80=1
amp_velcurve_62=1.2825087128943489
amp_velcurve_60=1
amp_velcurve_42=0.8301170636418927
amp_velcurve_40=1
amp_velcurve_22=0.9512765150643896
amp_velcurve_20=1
amp_velcurve_2=0
<region>
lovel=101
hivel=127
ampeg_release=1
sample=G4_v127.aif
offset=0
lokey=66
hikey=68
pitch_keycenter=67

<region>
lovel=81
hivel=100
ampeg_release=1
sample=G4_v100.aif
offset=0
lokey=66
hikey=68
pitch_keycenter=67

<region>
lovel=61
hivel=80
ampeg_release=1
sample=G4_v80.aif
offset=0
lokey=66
hikey=68
pitch_keycenter=67

<region>
lovel=41
hivel=60
ampeg_release=1
sample=G4_v60.aif
offset=0
lokey=66
hikey=68
pitch_keycenter=67

<region>
lovel=21
hivel=40
ampeg_release=1
sample=G4_v40.aif
offset=0
lokey=66
hikey=68
pitch_keycenter=67

<region>
lovel=1
hivel=20
ampeg_release=1
sample=G4_v20.aif
offset=0
lokey=66
hikey=68
pitch_keycenter=67
<group>
amp_velcurve_127=1
amp_velcurve_102=0.894515011523816
amp_velcurve_100=1
amp_velcurve_82=0.7661609006342373
amp_velcurve_80=1
amp_velcurve_62=1.0786595636337988
amp_velcurve_60=1
amp_velcurve_42=0.8243042240689035
amp_velcurve_40=1
amp_velcurve_22=1.0366599542104913
amp_velcurve_20=1
amp_velcurve_2=0
<region>
lovel=101
hivel=127
ampeg_release=1
sample=E4_v127.aif
offset=0
lokey=63
hikey=65
pitch_keycenter=64

<region>
lovel=81
hivel=100
ampeg_release=1
sample=E4_v100.aif
offset=0
lokey=63
hikey=65
pitch_keycenter=64

<region>
lovel=61
hivel=80
ampeg_release=1
sample=E4_v80.aif
offset=0
lokey=63
hikey=65
pitch_keycenter=64

<region>
lovel=41
hivel=60
ampeg_release=1
sample=E4_v60.aif
offset=0
lokey=63
hikey=65
pitch_keycenter=64

<region>
lovel=21
hivel=40
ampeg_release=1
sample=E4_v40.aif
offset=0
lokey=63
hikey=65
pitch_keycenter=64

<region>
lovel=1
hivel=20
ampeg_release=1
sample=E4_v20.aif
offset=0
lokey=63
hikey=65
pitch_keycenter=64
<group>
amp_velcurve_127=1
amp_velcurve_102=1.3233732286741675
amp_velcurve_100=1
amp_velcurve_82=0.6885566500452232
amp_velcurve_80=1
amp_velcurve_62=1.0270831605412258
amp_velcurve_60=1
amp_velcurve_42=0.9470765876009776
amp_velcurve_40=1
amp_velcurve_22=0.9329174253222322
amp_velcurve_20=1
amp_velcurve_2=0
<region>
lovel=101
hivel=127
ampeg_release=1
sample=Db4_v127.aif
offset=0
lokey=60
hikey=62
pitch_keycenter=61

<region>
lovel=81
hivel=100
ampeg_release=1
sample=Db4_v100.aif
offset=0
lokey=60
hikey=62
pitch_keycenter=61

<region>
lovel=61
hivel=80
ampeg_release=1
sample=Db4_v80.aif
offset=0
lokey=60
hikey=62
pitch_keycenter=61

<region>
lovel=41
hivel=60
ampeg_release=1
sample=Db4_v60.aif
offset=0
lokey=60
hikey=62
pitch_keycenter=61

<region>
lovel=21
hivel=40
ampeg_release=1
sample=Db4_v40.aif
offset=0
lokey=60
hikey=62
pitch_keycenter=61

<region>
lovel=1
hivel=20
ampeg_release=1
sample=Db4_v20.aif
offset=0
lokey=60
hikey=62
pitch_keycenter=61
<group>
amp_velcurve_127=1
amp_velcurve_102=1.2340250859067738
amp_velcurve_100=1
amp_velcurve_82=0.918798174568579
amp_velcurve_80=1
amp_velcurve_62=0.9178170285841297
amp_velcurve_60=1
amp_velcurve_42=1.0175932062678164
amp_velcurve_40=1
amp_velcurve_22=0.9484151415632605
amp_velcurve_20=1
amp_velcurve_2=0
<region>
lovel=101
hivel=127
ampeg_release=1
sample=Bb3_v127.aif
offset=0
lokey=57
hikey=59
pitch_keycenter=58

<region>
lovel=81
hivel=100
ampeg_release=1
sample=Bb3_v100.aif
offset=0
lokey=57
hikey=59
pitch_keycenter=58

<region>
lovel=61
hivel=80
ampeg_release=1
sample=Bb3_v80.aif
offset=0
lokey=57
hikey=59
pitch_keycenter=58

<region>
lovel=41
hivel=60
ampeg_release=1
sample=Bb3_v60.aif
offset=0
lokey=57
hikey=59
pitch_keycenter=58

<region>
lovel=21
hivel=40
ampeg_release=1
sample=Bb3_v40.aif
offset=0
lokey=57
hikey=59
pitch_keycenter=58

<region>
lovel=1
hivel=20
ampeg_release=1
sample=Bb3_v20.aif
offset=0
lokey=57
hikey=59
pitch_keycenter=58
<group>
amp_velcurve_127=1
amp_velcurve_102=1.7504760154304684
amp_velcurve_100=1
amp_velcurve_82=0.7742813258741746
amp_velcurve_80=1
amp_velcurve_62=0.9735956902212113
amp_velcurve_60=1
amp_velcurve_42=0.9239059163948867
amp_velcurve_40=1
amp_velcurve_22=0.8913759573696001
amp_velcurve_20=1
amp_velcurve_2=0
<region>
lovel=101
hivel=127
ampeg_release=1
sample=G3_v127.aif
offset=0
lokey=54
hikey=56
pitch_keycenter=55

<region>
lovel=81
hivel=100
ampeg_release=1
sample=G3_v100.aif
offset=0
lokey=54
hikey=56
pitch_keycenter=55

<region>
lovel=61
hivel=80
ampeg_release=1
sample=G3_v80.aif
offset=0
lokey=54
hikey=56
pitch_keycenter=55

<region>
lovel=41
hivel=60
ampeg_release=1
sample=G3_v60.aif
offset=0
lokey=54
hikey=56
pitch_keycenter=55

<region>
lovel=21
hivel=40
ampeg_release=1
sample=G3_v40.aif
offset=0
lokey=54
hikey=56
pitch_keycenter=55

<region>
lovel=1
hivel=20
ampeg_release=1
sample=G3_v20.aif
offset=0
lokey=54
hikey=56
pitch_keycenter=55
<group>
amp_velcurve_127=1
amp_velcurve_102=0.9329545268726227
amp_velcurve_100=1
amp_velcurve_82=0.853576655708881
amp_velcurve_80=1
amp_velcurve_62=1.0104128681968467
amp_velcurve_60=1
amp_velcurve_42=0.9953276247410979
amp_velcurve_40=1
amp_velcurve_22=0.9324097823479768
amp_velcurve_20=1
amp_velcurve_2=0
<region>
lovel=101
hivel=127
ampeg_release=1
sample=E3_v127.aif
offset=0
lokey=51
hikey=53
pitch_keycenter=52

<region>
lovel=81
hivel=100
ampeg_release=1
sample=E3_v100.aif
offset=0
lokey=51
hikey=53
pitch_keycenter=52

<region>
lovel=61
hivel=80
ampeg_release=1
sample=E3_v80.aif
offset=0
lokey=51
hikey=53
pitch_keycenter=52

<region>
lovel=41
hivel=60
ampeg_release=1
sample=E3_v60.aif
offset=0
lokey=51
hikey=53
pitch_keycenter=52

<region>
lovel=21
hivel=40
ampeg_release=1
sample=E3_v40.aif
offset=0
lokey=51
hikey=53
pitch_keycenter=52

<region>
lovel=1
hivel=20
ampeg_release=1
sample=E3_v20.aif
offset=0
lokey=51
hikey=53
pitch_keycenter=52
<group>
amp_velcurve_127=1
amp_velcurve_102=1.0693698251687713
amp_velcurve_100=1
amp_velcurve_82=1.0654792375282227
amp_velcurve_80=1
amp_velcurve_62=1.0495147364547177
amp_velcurve_60=1
amp_velcurve_42=0.7604564917637406
amp_velcurve_40=1
amp_velcurve_22=0.9013756069962888
amp_velcurve_20=1
amp_velcurve_2=0
<region>
lovel=101
hivel=127
ampeg_release=1
sample=Db3_v127.aif
offset=0
lokey=48
hikey=50
pitch_keycenter=49

<region>
lovel=81
hivel=100
ampeg_release=1
sample=Db3_v100.aif
offset=0
lokey=48
hikey=50
pitch_keycenter=49

<region>
lovel=61
hivel=80
ampeg_release=1
sample=Db3_v80.aif
offset=0
lokey=48
hikey=50
pitch_keycenter=49

<region>
lovel=41
hivel=60
ampeg_release=1
sample=Db3_v60.aif
offset=0
lokey=48
hikey=50
pitch_keycenter=49

<region>
lovel=21
hivel=40
ampeg_release=1
sample=Db3_v40.aif
offset=0
lokey=48
hikey=50
pitch_keycenter=49

<region>
lovel=1
hivel=20
ampeg_release=1
sample=Db3_v20.aif
offset=0
lokey=48
hikey=50
pitch_keycenter=49
<group>
amp_velcurve_127=1
amp_velcurve_102=0.9911352236633614
amp_velcurve_100=1
amp_velcurve_82=1.0419663768461063
amp_velcurve_80=1
amp_velcurve_62=0.9970530555440079
amp_velcurve_60=1
amp_velcurve_42=1.1392830219969434
amp_velcurve_40=1
amp_velcurve_22=0.7077167621974653
amp_velcurve_20=1
amp_velcurve_2=0
<region>
lovel=101
hivel=127
ampeg_release=1
sample=Bb2_v127.aif
offset=0
lokey=45
hikey=47
pitch_keycenter=46

<region>
lovel=81
hivel=100
ampeg_release=1
sample=Bb2_v100.aif
offset=0
lokey=45
hikey=47
pitch_keycenter=46

<region>
lovel=61
hivel=80
ampeg_release=1
sample=Bb2_v80.aif
offset=0
lokey=45
hikey=47
pitch_keycenter=46

<region>
lovel=41
hivel=60
ampeg_release=1
sample=Bb2_v60.aif
offset=0
lokey=45
hikey=47
pitch_keycenter=46

<region>
lovel=21
hivel=40
ampeg_release=1
sample=Bb2_v40.aif
offset=0
lokey=45
hikey=47
pitch_keycenter=46

<region>
lovel=1
hivel=20
ampeg_release=1
sample=Bb2_v20.aif
offset=0
lokey=45
hikey=47
pitch_keycenter=46
<group>
amp_velcurve_127=1
amp_velcurve_102=1.1886557349880669
amp_velcurve_100=1
amp_velcurve_82=0.8995670878486076
amp_velcurve_80=1
amp_velcurve_62=0.9739799516998817
amp_velcurve_60=1
amp_velcurve_42=1.0444029778753594
amp_velcurve_40=1
amp_velcurve_22=0.8178952460622347
amp_velcurve_20=1
amp_velcurve_2=0
<region>
lovel=101
hivel=127
ampeg_release=1
sample=G2_v127.aif
offset=0
lokey=42
hikey=44
pitch_keycenter=43

<region>
lovel=81
hivel=100
ampeg_release=1
sample=G2_v100.aif
offset=0
lokey=42
hikey=44
pitch_keycenter=43

<region>
lovel=61
hivel=80
ampeg_release=1
sample=G2_v80.aif
offset=0
lokey=42
hikey=44
pitch_keycenter=43

<region>
lovel=41
hivel=60
ampeg_release=1
sample=G2_v60.aif
offset=0
lokey=42
hikey=44
pitch_keycenter=43

<region>
lovel=21
hivel=40
ampeg_release=1
sample=G2_v40.aif
offset=0
lokey=42
hikey=44
pitch_keycenter=43

<region>
lovel=1
hivel=20
ampeg_release=1
sample=G2_v20.aif
offset=0
lokey=42
hikey=44
pitch_keycenter=43
<group>
amp_velcurve_127=1
amp_velcurve_102=0.7317243151932973
amp_velcurve_100=1
amp_velcurve_82=1.2374626119373713
amp_velcurve_80=1
amp_velcurve_62=0.939438141728691
amp_velcurve_60=1
amp_velcurve_42=0.8352009164076344
amp_velcurve_40=1
amp_velcurve_22=0.7730466847916317
amp_velcurve_20=1
amp_velcurve_2=0
<region>
lovel=101
hivel=127
ampeg_release=1
sample=E2_v127.aif
offset=0
lokey=39
hikey=41
pitch_keycenter=40

<region>
lovel=81
hivel=100
ampeg_release=1
sample=E2_v100.aif
offset=0
lokey=39
hikey=41
pitch_keycenter=40

<region>
lovel=61
hivel=80
ampeg_release=1
sample=E2_v80.aif
offset=0
lokey=39
hikey=41
pitch_keycenter=40

<region>
lovel=41
hivel=60
ampeg_release=1
sample=E2_v60.aif
offset=0
lokey=39
hikey=41
pitch_keycenter=40

<region>
lovel=21
hivel=40
ampeg_release=1
sample=E2_v40.aif
offset=0
lokey=39
hikey=41
pitch_keycenter=40

<region>
lovel=1
hivel=20
ampeg_release=1
sample=E2_v20.aif
offset=0
lokey=39
hikey=41
pitch_keycenter=40
<group>
amp_velcurve_127=1
amp_velcurve_102=0.9877035076760277
amp_velcurve_100=1
amp_velcurve_82=0.8856977987229607
amp_velcurve_80=1
amp_velcurve_62=0.933890604047215
amp_velcurve_60=1
amp_velcurve_42=0.9883313232034474
amp_velcurve_40=1
amp_velcurve_22=0.7149511468943373
amp_velcurve_20=1
amp_velcurve_2=0
<region>
lovel=101
hivel=127
ampeg_release=1
sample=Db2_v127.aif
offset=0
lokey=36
hikey=38
pitch_keycenter=37

<region>
lovel=81
hivel=100
ampeg_release=1
sample=Db2_v100.aif
offset=0
lokey=36
hikey=38
pitch_keycenter=37

<region>
lovel=61
hivel=80
ampeg_release=1
sample=Db2_v80.aif
offset=0
lokey=36
hikey=38
pitch_keycenter=37

<region>
lovel=41
hivel=60
ampeg_release=1
sample=Db2_v60.aif
offset=0
lokey=36
hikey=38
pitch_keycenter=37

<region>
lovel=21
hivel=40
ampeg_release=1
sample=Db2_v40.aif
offset=0
lokey=36
hikey=38
pitch_keycenter=37

<region>
lovel=1
hivel=20
ampeg_release=1
sample=Db2_v20.aif
offset=0
lokey=36
hikey=38
pitch_keycenter=37